<svg width="329" height="251" viewBox="0 0 329 251" fill="none" xmlns="http://www.w3.org/2000/svg">
<g clip-path="url(#clip0_19_7)">
<path d="M180.237 86.8514L183.625 65.667L160.777 56.3469L157.394 88.5433L180.237 86.8514Z" fill="#CA8C95"/>
<path d="M174.464 72.4764C187.331 72.4764 197.762 62.0305 197.762 49.1448C197.762 36.259 187.331 25.8131 174.464 25.8131C161.597 25.8131 151.166 36.259 151.166 49.1448C151.166 62.0305 161.597 72.4764 174.464 72.4764Z" fill="#CA8C95"/>
<path d="M172.607 17.7797C173.283 18.1724 174.184 17.5791 174.401 16.8272C174.618 16.0752 174.364 15.2773 174.118 14.5379C173.7 13.2971 173.279 12.0522 172.862 10.8115C171.969 8.16711 171.022 5.43081 169.095 3.41723C166.179 0.380151 161.549 -0.392697 157.381 0.167096C152.029 0.885635 146.744 3.78903 144.257 8.58904C141.767 13.3891 142.827 20.0899 147.328 23.0852C140.916 30.4418 138.68 38.6466 139.035 48.4053C139.389 58.1641 150.006 67.1458 156.935 74.0221C158.482 73.0821 159.888 68.6832 159.037 67.0832C158.186 65.4832 159.404 63.6325 158.353 62.162C157.302 60.6915 156.418 63.0351 157.485 61.5688C158.157 60.6456 155.533 58.5192 156.534 57.9677C161.365 55.2941 162.971 49.2617 166.008 44.6455C169.666 39.0768 175.932 35.3045 182.561 34.6779C186.211 34.3311 190.07 34.9578 193.061 37.08C196.052 39.2022 197.991 42.9954 197.299 46.6048C199.097 44.775 199.99 42.0972 199.652 39.5573C199.314 37.0173 197.754 34.6612 195.539 33.3703C196.882 28.917 195.731 23.7953 192.61 20.3489C189.49 16.9024 176.825 17.4914 172.27 18.3979" fill="#2F2E41"/>
<path d="M171.898 34.8074C165.862 35.4591 161.503 40.6977 157.823 45.5312C155.704 48.3176 153.481 51.3964 153.535 54.9014C153.589 58.444 155.955 61.4811 157.085 64.8398C158.933 70.3291 157.131 76.8545 152.734 80.6143C157.081 81.4414 161.778 78.1787 162.529 73.8132C163.401 68.7333 159.555 63.8288 160.009 58.6905C160.41 54.1662 163.972 50.6821 166.997 47.2983C170.021 43.9144 172.866 39.4236 171.473 35.0998" fill="#2F2E41"/>
<path d="M173.054 248.493C173.054 248.493 122.578 253.507 118.823 247.658C115.069 241.809 170.046 235.961 170.046 235.961L173.054 248.493Z" fill="#CA8C95"/>
<path d="M140.87 154.774L139.827 160.318C142.668 164.516 142.939 168.953 141.287 173.573L198.855 173.991C198.238 167.746 197.558 161.053 199.927 154.916L140.87 154.774Z" fill="#CA8C95"/>
<path d="M235.164 195.994L214.286 179.267C211.512 177.045 209.714 173.74 209.359 170.202L206.143 138.34L225.311 131.94L229.933 163.489L241.451 189.703L235.169 195.994H235.164Z" fill="#CA8C95"/>
<path d="M155.262 84.8002L183.212 83.5469L212.83 97.6754L200.732 155.401L139.41 159.996L131.067 96.0796L155.262 84.8002Z" fill="#F8CC75"/>
<path d="M199.927 168.702C204.128 174.246 205.888 187.593 207.674 200.869C207.674 200.869 130.082 200.452 129.665 200.452C129.248 200.452 141.525 172.462 141.525 172.462L199.927 168.702Z" fill="#2F2E41"/>
<path d="M202.463 197.327L207.678 200.869C207.678 200.869 281.515 195.856 275.258 219.251C269 242.645 249.394 246.405 249.394 246.405L170.134 251L169.299 238.05C169.299 238.05 92.9595 255.178 85.8678 220.086C78.7761 184.995 129.669 200.452 129.669 200.452L202.463 197.327Z" fill="#2F2E41"/>
<path d="M171.306 225.099C171.306 225.099 173.054 215.909 185.569 219.668C198.083 223.428 205.175 228.441 205.175 228.441L175.14 235.961L171.306 225.099Z" fill="#CA8C95"/>
<path d="M202.609 96.7062C202.609 96.7062 216.793 91.6931 222.216 107.986C227.639 124.278 226.388 137.646 226.388 137.646L205.53 144.33L202.609 96.7062Z" fill="#F8CC75"/>
<path d="M105.349 198.538L100.798 190.509L110.63 165.999L115.252 134.446L134.421 140.846L131.163 173.097C130.829 176.393 129.156 179.468 126.574 181.536L105.349 198.542V198.538Z" fill="#CA8C95"/>
<path d="M137.95 96.7062C137.95 96.7062 123.767 91.6931 118.344 107.986C112.921 124.278 114.172 137.646 114.172 137.646L135.03 144.33L137.95 96.7062Z" fill="#F8CC75"/>
<path d="M241.197 199.683C246.726 199.683 251.208 193.043 251.208 184.853C251.208 176.662 246.726 170.022 241.197 170.022C235.667 170.022 231.185 176.662 231.185 184.853C231.185 193.043 235.667 199.683 241.197 199.683Z" fill="#CA8C95"/>
<path d="M100.614 202.189C106.144 202.189 110.626 195.55 110.626 187.359C110.626 179.169 106.144 172.529 100.614 172.529C95.085 172.529 90.6025 179.169 90.6025 187.359C90.6025 195.55 95.085 202.189 100.614 202.189Z" fill="#CA8C95"/>
<path d="M138.847 212.149L175.14 222.593L182.231 235.125L168.669 238.05" fill="#2F2E41"/>
</g>
<defs>
<clipPath id="clip0_19_7">
<rect width="329" height="251" fill="white"/>
</clipPath>
</defs>
</svg>
