<svg width="333" height="75" viewBox="0 0 333 75" fill="none" xmlns="http://www.w3.org/2000/svg">
<path d="M65.625 24.1608V6.25C54.1622 6.25 42.9858 10.1187 34.9617 16.8532L32.8125 18.5726L30.6631 16.8532C22.4959 10.1187 11.4629 6.25 0 6.25V24.1608C0 29.0325 8.88375 33.6177 11.7495 37.4862C8.88375 41.355 0 45.9402 0 50.8119V68.7227C11.4629 68.7227 22.6392 64.8539 30.6631 58.1195L32.8125 56.4002C27.2244 53.1045 23.7855 47.2298 23.7855 40.6386V34.3341C23.7855 27.8863 27.2244 21.8682 32.8125 18.5726C38.4006 21.8682 41.8395 27.8863 41.8395 34.3341V40.6386C41.8395 47.0866 38.4006 53.1045 32.8125 56.4002L34.9617 58.1195C43.1291 64.8539 54.1622 68.7227 65.625 68.7227V50.8119C65.625 45.9402 56.7413 41.355 53.8755 37.4862C56.7413 33.6177 65.625 29.0325 65.625 24.1608Z" fill="url(#paint0_linear_3_5)"/>
<path d="M127.17 20.06V21.16C125.997 21.1967 125.117 21.3433 124.53 21.6C123.943 21.82 123.54 22.26 123.32 22.92C123.137 23.5433 123.045 24.5333 123.045 25.89V53.17C123.045 54.49 123.137 55.48 123.32 56.14C123.54 56.8 123.943 57.24 124.53 57.46C125.117 57.68 125.997 57.8267 127.17 57.9V59C126.143 58.9267 124.842 58.89 123.265 58.89C121.725 58.8533 120.148 58.835 118.535 58.835C116.775 58.835 115.125 58.8533 113.585 58.89C112.045 58.89 110.798 58.9267 109.845 59V57.9C111.092 57.8267 112.027 57.68 112.65 57.46C113.31 57.24 113.75 56.8 113.97 56.14C114.19 55.48 114.3 54.49 114.3 53.17V23.415H114.685L101.045 59.055H100.165L85.315 23.635V49.98C85.315 51.9967 85.425 53.555 85.645 54.655C85.865 55.7183 86.3417 56.4883 87.075 56.965C87.845 57.405 89.0367 57.7167 90.65 57.9V59C89.9533 58.9267 89.0367 58.89 87.9 58.89C86.7633 58.8533 85.7 58.835 84.71 58.835C83.8667 58.835 83.005 58.8533 82.125 58.89C81.245 58.89 80.5117 58.9267 79.925 59V57.9C81.0983 57.7167 81.9783 57.405 82.565 56.965C83.1517 56.525 83.5367 55.81 83.72 54.82C83.94 53.7933 84.05 52.4 84.05 50.64V25.89C84.05 24.5333 83.94 23.5433 83.72 22.92C83.5367 22.26 83.1333 21.82 82.51 21.6C81.9233 21.3433 81.0617 21.1967 79.925 21.16V20.06C80.5117 20.0967 81.245 20.1333 82.125 20.17C83.005 20.2067 83.8667 20.225 84.71 20.225C86.2867 20.225 87.8267 20.2067 89.33 20.17C90.87 20.1333 92.2267 20.0967 93.4 20.06L104.95 47.945L103.575 49.21L114.63 20.225C115.253 20.225 115.895 20.225 116.555 20.225C117.215 20.225 117.875 20.225 118.535 20.225C120.148 20.225 121.725 20.2067 123.265 20.17C124.842 20.1333 126.143 20.0967 127.17 20.06ZM137.442 16.375C138.982 16.375 140.192 16.76 141.072 17.53C141.988 18.2633 142.447 19.29 142.447 20.61C142.447 21.93 141.988 22.975 141.072 23.745C140.192 24.4783 138.982 24.845 137.442 24.845C135.902 24.845 134.673 24.4783 133.757 23.745C132.877 22.975 132.437 21.93 132.437 20.61C132.437 19.29 132.877 18.2633 133.757 17.53C134.673 16.76 135.902 16.375 137.442 16.375ZM141.732 29.96V53.885C141.732 55.425 141.988 56.47 142.502 57.02C143.052 57.57 143.968 57.845 145.252 57.845V59C144.592 58.9633 143.565 58.9267 142.172 58.89C140.778 58.8167 139.367 58.78 137.937 58.78C136.507 58.78 135.058 58.8167 133.592 58.89C132.125 58.9267 131.025 58.9633 130.292 59V57.845C131.575 57.845 132.473 57.57 132.987 57.02C133.537 56.47 133.812 55.425 133.812 53.885V36.56C133.812 34.91 133.555 33.7 133.042 32.93C132.565 32.1233 131.648 31.72 130.292 31.72V30.565C131.465 30.675 132.602 30.73 133.702 30.73C135.242 30.73 136.672 30.675 137.992 30.565C139.348 30.4183 140.595 30.2167 141.732 29.96ZM168.1 29.795C169.64 29.795 170.887 29.9967 171.84 30.4C172.83 30.7667 173.6 31.28 174.15 31.94C174.737 32.6367 175.159 33.535 175.415 34.635C175.709 35.735 175.855 37.22 175.855 39.09V53.885C175.855 55.425 176.112 56.47 176.625 57.02C177.175 57.57 178.092 57.845 179.375 57.845V59C178.679 58.9633 177.634 58.9267 176.24 58.89C174.847 58.8167 173.472 58.78 172.115 58.78C170.722 58.78 169.347 58.8167 167.99 58.89C166.67 58.9267 165.662 58.9633 164.965 59V57.845C166.065 57.845 166.835 57.57 167.275 57.02C167.715 56.47 167.935 55.425 167.935 53.885V36.78C167.935 35.8633 167.844 35.075 167.66 34.415C167.477 33.7183 167.147 33.1867 166.67 32.82C166.194 32.4167 165.479 32.215 164.525 32.215C163.535 32.215 162.619 32.49 161.775 33.04C160.969 33.59 160.309 34.36 159.795 35.35C159.319 36.3033 159.08 37.385 159.08 38.595V53.885C159.08 55.425 159.3 56.47 159.74 57.02C160.217 57.57 160.987 57.845 162.05 57.845V59C161.39 58.9633 160.419 58.9267 159.135 58.89C157.889 58.8167 156.587 58.78 155.23 58.78C153.837 58.78 152.407 58.8167 150.94 58.89C149.474 58.9267 148.374 58.9633 147.64 59V57.845C148.924 57.845 149.822 57.57 150.335 57.02C150.885 56.47 151.16 55.425 151.16 53.885V36.56C151.16 34.91 150.904 33.7 150.39 32.93C149.914 32.1233 148.997 31.72 147.64 31.72V30.565C148.814 30.675 149.95 30.73 151.05 30.73C152.59 30.73 154.02 30.675 155.34 30.565C156.697 30.4183 157.944 30.2167 159.08 29.96V34.91C159.997 33.04 161.244 31.72 162.82 30.95C164.397 30.18 166.157 29.795 168.1 29.795ZM208.484 15.935V52.95C208.484 54.6 208.741 55.8283 209.254 56.635C209.768 57.405 210.684 57.79 212.004 57.79V58.945C210.868 58.835 209.731 58.78 208.594 58.78C207.054 58.78 205.606 58.835 204.249 58.945C202.929 59.055 201.701 59.2567 200.564 59.55V22.535C200.564 20.885 200.308 19.675 199.794 18.905C199.318 18.0983 198.401 17.695 197.044 17.695V16.54C198.218 16.65 199.354 16.705 200.454 16.705C201.958 16.705 203.388 16.65 204.744 16.54C206.101 16.3933 207.348 16.1917 208.484 15.935ZM194.459 29.795C196.073 29.795 197.484 30.07 198.694 30.62C199.941 31.1333 200.913 32.0133 201.609 33.26L200.949 33.865C200.473 32.985 199.831 32.3617 199.024 31.995C198.254 31.5917 197.429 31.39 196.549 31.39C194.679 31.39 193.194 32.49 192.094 34.69C190.994 36.8533 190.463 40.2083 190.499 44.755C190.499 47.8717 190.701 50.365 191.104 52.235C191.544 54.0683 192.149 55.3883 192.919 56.195C193.726 57.0017 194.643 57.405 195.669 57.405C196.916 57.405 198.034 56.91 199.024 55.92C200.014 54.93 200.546 53.5917 200.619 51.905L200.894 53.83C200.344 55.7733 199.446 57.2583 198.199 58.285C196.989 59.275 195.394 59.77 193.414 59.77C191.251 59.77 189.308 59.2383 187.584 58.175C185.898 57.1117 184.578 55.48 183.624 53.28C182.671 51.0433 182.194 48.165 182.194 44.645C182.194 41.3083 182.726 38.5583 183.789 36.395C184.853 34.195 186.301 32.545 188.134 31.445C190.004 30.345 192.113 29.795 194.459 29.795ZM213.921 59C213.837 59 213.795 58.874 213.795 58.622C213.795 58.37 213.837 58.244 213.921 58.244C215.097 58.244 215.979 58.139 216.567 57.929C217.155 57.719 217.596 57.32 217.89 56.732C218.184 56.102 218.436 55.157 218.646 53.897L223.812 24.728C223.98 23.636 224.064 22.943 224.064 22.649C224.064 21.767 223.812 21.179 223.308 20.885C222.804 20.549 221.943 20.381 220.725 20.381C220.599 20.381 220.536 20.255 220.536 20.003C220.536 19.751 220.599 19.625 220.725 19.625H245.484C245.82 19.625 245.946 19.814 245.862 20.192L245.358 23.405L244.539 28.634C244.497 28.76 244.392 28.823 244.224 28.823C244.14 28.823 244.035 28.802 243.909 28.76C243.825 28.676 243.783 28.613 243.783 28.571C243.573 26.219 242.733 24.371 241.263 23.027C239.793 21.641 237.903 20.948 235.593 20.948H234.522C233.304 20.948 232.422 21.053 231.876 21.263C231.33 21.431 230.931 21.767 230.679 22.271C230.469 22.775 230.238 23.615 229.986 24.791L224.883 53.645C224.757 54.317 224.694 54.884 224.694 55.346C224.694 56.48 225.072 57.257 225.828 57.677C226.626 58.055 228.075 58.244 230.175 58.244C230.259 58.244 230.301 58.37 230.301 58.622C230.301 58.874 230.259 59 230.175 59C229.293 59 228.537 58.979 227.907 58.937L220.788 58.874L216.756 58.937C216.084 58.979 215.139 59 213.921 59ZM238.617 45.707C238.575 45.875 238.428 45.959 238.176 45.959C237.924 45.917 237.819 45.812 237.861 45.644C237.945 45.056 237.987 44.636 237.987 44.384C237.987 42.998 237.546 41.948 236.664 41.234C235.782 40.52 234.543 40.163 232.947 40.163H224.568L224.757 38.399H233.388C235.278 38.399 236.748 38.021 237.798 37.265C238.848 36.509 239.562 35.27 239.94 33.548C239.94 33.422 240.066 33.359 240.318 33.359C240.402 33.359 240.486 33.401 240.57 33.485C240.696 33.527 240.738 33.59 240.696 33.674C240.528 34.85 240.276 36.152 239.94 37.58C239.94 37.748 239.835 38.315 239.625 39.281L239.373 40.919C239.205 42.137 238.953 43.733 238.617 45.707ZM251.302 58.181C252.562 51.377 254.095 45.665 255.901 41.045C257.749 36.425 259.87 34.115 262.264 34.115C263.272 34.115 264.238 34.472 265.162 35.186C266.128 35.9 266.611 36.719 266.611 37.643C266.611 38.315 266.338 38.987 265.792 39.659C265.288 40.289 264.637 40.604 263.839 40.604C263.083 40.604 262.264 40.247 261.382 39.533C261.088 39.323 260.794 39.134 260.5 38.966C260.206 38.798 259.912 38.714 259.618 38.714C258.904 38.714 258.022 39.827 256.972 42.053C255.922 44.279 254.914 46.946 253.948 50.054C253.024 53.162 252.352 55.892 251.932 58.244L251.302 58.181ZM248.404 59.504C247.018 59.504 246.325 59.336 246.325 59C246.367 58.706 246.493 58.076 246.703 57.11C246.955 56.144 247.165 55.22 247.333 54.338L249.916 40.289C250 39.617 250.042 39.176 250.042 38.966C250.042 37.79 249.664 37.202 248.908 37.202C248.068 37.202 246.871 38.042 245.317 39.722C245.275 39.764 245.212 39.785 245.128 39.785C244.96 39.785 244.834 39.722 244.75 39.596C244.666 39.428 244.687 39.281 244.813 39.155C246.325 37.391 247.669 36.11 248.845 35.312C250.063 34.514 251.281 34.115 252.499 34.115C253.549 34.115 254.305 34.409 254.767 34.997C255.229 35.543 255.46 36.362 255.46 37.454C255.46 38.084 255.397 38.777 255.271 39.533L251.932 58.244C251.848 58.622 251.512 58.916 250.924 59.126C250.336 59.378 249.496 59.504 248.404 59.504ZM274.981 59.756C272.083 59.756 269.899 58.874 268.429 57.11C267.001 55.346 266.287 53.12 266.287 50.432C266.287 49.508 266.392 48.479 266.602 47.345C267.022 45.077 267.946 42.914 269.374 40.856C270.844 38.798 272.671 37.118 274.855 35.816C277.039 34.514 279.391 33.863 281.911 33.863C283.507 33.863 284.746 34.136 285.628 34.682C286.51 35.228 286.951 35.984 286.951 36.95C286.951 38.42 286.111 39.827 284.431 41.171C282.751 42.473 280.567 43.586 277.879 44.51C275.191 45.434 272.398 46.043 269.5 46.337L269.626 45.518C273.07 44.972 275.758 44.09 277.69 42.872C279.664 41.654 280.651 39.974 280.651 37.832C280.651 37.118 280.462 36.572 280.084 36.194C279.748 35.774 279.265 35.564 278.635 35.564C277.249 35.564 276.031 36.467 274.981 38.273C273.931 40.079 273.175 42.41 272.713 45.266C272.545 46.274 272.461 47.366 272.461 48.542C272.461 51.104 272.986 53.162 274.036 54.716C275.086 56.228 276.64 56.984 278.698 56.984C279.58 56.984 280.525 56.837 281.533 56.543C282.583 56.207 283.528 55.703 284.368 55.031H284.431C284.557 55.031 284.662 55.094 284.746 55.22C284.872 55.346 284.893 55.451 284.809 55.535C283.297 57.005 281.701 58.076 280.021 58.748C278.341 59.42 276.661 59.756 274.981 59.756ZM297.499 59.756C294.601 59.756 292.417 58.874 290.947 57.11C289.519 55.346 288.805 53.12 288.805 50.432C288.805 49.508 288.91 48.479 289.12 47.345C289.54 45.077 290.464 42.914 291.892 40.856C293.362 38.798 295.189 37.118 297.373 35.816C299.557 34.514 301.909 33.863 304.429 33.863C306.025 33.863 307.264 34.136 308.146 34.682C309.028 35.228 309.469 35.984 309.469 36.95C309.469 38.42 308.629 39.827 306.949 41.171C305.269 42.473 303.085 43.586 300.397 44.51C297.709 45.434 294.916 46.043 292.018 46.337L292.144 45.518C295.588 44.972 298.276 44.09 300.208 42.872C302.182 41.654 303.169 39.974 303.169 37.832C303.169 37.118 302.98 36.572 302.602 36.194C302.266 35.774 301.783 35.564 301.153 35.564C299.767 35.564 298.549 36.467 297.499 38.273C296.449 40.079 295.693 42.41 295.231 45.266C295.063 46.274 294.979 47.366 294.979 48.542C294.979 51.104 295.504 53.162 296.554 54.716C297.604 56.228 299.158 56.984 301.216 56.984C302.098 56.984 303.043 56.837 304.051 56.543C305.101 56.207 306.046 55.703 306.886 55.031H306.949C307.075 55.031 307.18 55.094 307.264 55.22C307.39 55.346 307.411 55.451 307.327 55.535C305.815 57.005 304.219 58.076 302.539 58.748C300.859 59.42 299.179 59.756 297.499 59.756Z" fill="white"/>
<defs>
<linearGradient id="paint0_linear_3_5" x1="-8.49365e-07" y1="68.7364" x2="64.5972" y2="5.19152" gradientUnits="userSpaceOnUse">
<stop offset="0.189061" stop-color="#F8CC75"/>
<stop offset="0.811088" stop-color="#AAC7E2"/>
</linearGradient>
</defs>
</svg>
