<svg width="212" height="45" viewBox="0 0 212 45" fill="none" xmlns="http://www.w3.org/2000/svg">
<path d="M42 14.4629V3C34.6638 3 27.5109 5.47598 22.3755 9.78602L21 10.8865L19.6244 9.78602C14.3974 5.47598 7.33624 3 0 3V14.4629C0 17.5808 5.6856 20.5153 7.51966 22.9912C5.6856 25.4672 0 28.4017 0 31.5196V42.9825C7.33624 42.9825 14.4891 40.5065 19.6244 36.1965L21 35.0961C17.4236 32.9869 15.2227 29.2271 15.2227 25.0087V20.9738C15.2227 16.8472 17.4236 12.9956 21 10.8865C24.5764 12.9956 26.7773 16.8472 26.7773 20.9738V25.0087C26.7773 29.1354 24.5764 32.9869 21 35.0961L22.3755 36.1965C27.6026 40.5065 34.6638 42.9825 42 42.9825V31.5196C42 28.4017 36.3144 25.4672 34.4803 22.9912C36.3144 20.5153 42 17.5808 42 14.4629Z" fill="url(#paint0_linear_1_16)"/>
<path d="M81.648 12.928V13.608C80.9227 13.6307 80.3673 13.7213 79.982 13.88C79.5967 14.016 79.336 14.288 79.2 14.696C79.0867 15.0813 79.03 15.6933 79.03 16.532V33.396C79.03 34.212 79.098 34.824 79.234 35.232C79.37 35.64 79.6193 35.912 79.982 36.048C80.3673 36.184 80.9227 36.2747 81.648 36.32V37C81.0587 36.9547 80.3107 36.932 79.404 36.932C78.4973 36.9093 77.5793 36.898 76.65 36.898C75.63 36.898 74.6667 36.9093 73.76 36.932C72.876 36.932 72.162 36.9547 71.618 37V36.32C72.3887 36.2747 72.9667 36.184 73.352 36.048C73.76 35.912 74.032 35.64 74.168 35.232C74.304 34.824 74.372 34.212 74.372 33.396V14.9L74.61 14.934L66.178 37.102H65.634L56.658 15.104V31.968C56.658 33.056 56.726 33.906 56.862 34.518C56.998 35.1073 57.2927 35.538 57.746 35.81C58.222 36.0593 58.936 36.2293 59.888 36.32V37C59.4573 36.9547 58.902 36.932 58.222 36.932C57.542 36.9093 56.896 36.898 56.284 36.898C55.74 36.898 55.1847 36.9093 54.618 36.932C54.074 36.932 53.6207 36.9547 53.258 37V36.32C54.006 36.2293 54.5613 36.0593 54.924 35.81C55.3093 35.5607 55.5587 35.1527 55.672 34.586C55.808 34.0193 55.876 33.2373 55.876 32.24V16.532C55.876 15.6933 55.808 15.0813 55.672 14.696C55.5587 14.288 55.3093 14.016 54.924 13.88C54.5613 13.7213 54.006 13.6307 53.258 13.608V12.928C53.6207 12.9507 54.074 12.9733 54.618 12.996C55.1847 13.0187 55.74 13.03 56.284 13.03C57.1227 13.03 57.9387 13.0187 58.732 12.996C59.5253 12.9733 60.228 12.9507 60.84 12.928L68.15 31.186L67.402 31.798L74.508 13.03C74.848 13.03 75.1993 13.03 75.562 13.03C75.9473 13.03 76.31 13.03 76.65 13.03C77.5793 13.03 78.4973 13.0187 79.404 12.996C80.3107 12.9733 81.0587 12.9507 81.648 12.928ZM88.0121 10.752C88.8281 10.752 89.4968 10.9787 90.0181 11.432C90.5394 11.8853 90.8001 12.486 90.8001 13.234C90.8001 13.982 90.5394 14.5827 90.0181 15.036C89.4968 15.4893 88.8281 15.716 88.0121 15.716C87.1961 15.716 86.5274 15.4893 86.0061 15.036C85.4848 14.5827 85.2241 13.982 85.2241 13.234C85.2241 12.486 85.4848 11.8853 86.0061 11.432C86.5274 10.9787 87.1961 10.752 88.0121 10.752ZM90.3921 19.048V33.838C90.3921 34.79 90.5621 35.436 90.9021 35.776C91.2648 36.116 91.8654 36.286 92.7041 36.286V37C92.2961 36.9773 91.6728 36.9547 90.8341 36.932C89.9954 36.8867 89.1454 36.864 88.2841 36.864C87.4454 36.864 86.5954 36.8867 85.7341 36.932C84.8728 36.9547 84.2268 36.9773 83.7961 37V36.286C84.6348 36.286 85.2241 36.116 85.5641 35.776C85.9268 35.436 86.1081 34.79 86.1081 33.838V23.162C86.1081 22.1193 85.9381 21.36 85.5981 20.884C85.2808 20.3853 84.6801 20.136 83.7961 20.136V19.422C84.5214 19.49 85.2241 19.524 85.9041 19.524C86.7428 19.524 87.5361 19.49 88.2841 19.422C89.0548 19.3313 89.7574 19.2067 90.3921 19.048ZM106.461 18.946C107.413 18.946 108.172 19.0707 108.739 19.32C109.328 19.5693 109.804 19.8867 110.167 20.272C110.575 20.7027 110.858 21.258 111.017 21.938C111.198 22.618 111.289 23.536 111.289 24.692V33.838C111.289 34.79 111.459 35.436 111.799 35.776C112.162 36.116 112.762 36.286 113.601 36.286V37C113.193 36.9773 112.558 36.9547 111.697 36.932C110.858 36.8867 110.042 36.864 109.249 36.864C108.41 36.864 107.594 36.8867 106.801 36.932C106.008 36.9547 105.418 36.9773 105.033 37V36.286C105.758 36.286 106.268 36.116 106.563 35.776C106.858 35.436 107.005 34.79 107.005 33.838V23.536C107.005 22.924 106.948 22.38 106.835 21.904C106.722 21.4053 106.495 21.02 106.155 20.748C105.815 20.4533 105.328 20.306 104.693 20.306C103.945 20.306 103.276 20.51 102.687 20.918C102.12 21.326 101.667 21.8927 101.327 22.618C101.01 23.3207 100.851 24.114 100.851 24.998V33.838C100.851 34.79 100.998 35.436 101.293 35.776C101.588 36.116 102.098 36.286 102.823 36.286V37C102.438 36.9773 101.86 36.9547 101.089 36.932C100.318 36.8867 99.5364 36.864 98.7431 36.864C97.9044 36.864 97.0544 36.8867 96.1931 36.932C95.3318 36.9547 94.6858 36.9773 94.2551 37V36.286C95.0938 36.286 95.6831 36.116 96.0231 35.776C96.3858 35.436 96.5671 34.79 96.5671 33.838V23.128C96.5671 22.108 96.3971 21.36 96.0571 20.884C95.7398 20.3853 95.1391 20.136 94.2551 20.136V19.422C94.9804 19.49 95.6831 19.524 96.3631 19.524C97.2018 19.524 97.9951 19.49 98.7431 19.422C99.5138 19.3313 100.216 19.2067 100.851 19.048V22.448C101.418 21.156 102.2 20.2493 103.197 19.728C104.194 19.2067 105.282 18.946 106.461 18.946ZM131.227 10.378V33.294C131.227 34.314 131.397 35.0733 131.737 35.572C132.077 36.048 132.677 36.286 133.539 36.286V37C132.836 36.932 132.133 36.898 131.431 36.898C130.592 36.898 129.799 36.932 129.051 37C128.303 37.068 127.6 37.1927 126.943 37.374V14.458C126.943 13.438 126.773 12.69 126.433 12.214C126.115 11.7153 125.515 11.466 124.631 11.466V10.752C125.356 10.82 126.059 10.854 126.739 10.854C127.6 10.854 128.405 10.82 129.153 10.752C129.901 10.6613 130.592 10.5367 131.227 10.378ZM123.101 18.946C124.098 18.946 124.993 19.1387 125.787 19.524C126.58 19.9093 127.169 20.5553 127.555 21.462L127.147 21.802C126.829 21.1447 126.399 20.6573 125.855 20.34C125.311 20.0227 124.699 19.864 124.019 19.864C122.795 19.864 121.809 20.5553 121.061 21.938C120.335 23.298 119.973 25.3947 119.973 28.228C119.973 30.132 120.12 31.6733 120.415 32.852C120.709 34.008 121.129 34.8467 121.673 35.368C122.239 35.8893 122.908 36.15 123.679 36.15C124.495 36.15 125.231 35.8213 125.889 35.164C126.546 34.484 126.931 33.5207 127.045 32.274L127.283 33.226C126.988 34.6087 126.433 35.6627 125.617 36.388C124.801 37.1133 123.724 37.476 122.387 37.476C121.027 37.476 119.814 37.1473 118.749 36.49C117.706 35.81 116.89 34.79 116.301 33.43C115.734 32.0473 115.451 30.302 115.451 28.194C115.451 26.1313 115.791 24.42 116.471 23.06C117.151 21.6773 118.069 20.646 119.225 19.966C120.381 19.286 121.673 18.946 123.101 18.946ZM161.319 12.928C161.228 13.9027 161.16 14.8433 161.115 15.75C161.092 16.6567 161.081 17.348 161.081 17.824C161.081 18.3453 161.092 18.8327 161.115 19.286C161.137 19.7393 161.16 20.136 161.183 20.476H160.401C160.151 18.776 159.811 17.4387 159.381 16.464C158.95 15.4667 158.372 14.764 157.647 14.356C156.921 13.9253 155.958 13.71 154.757 13.71H153.295C152.615 13.71 152.093 13.7667 151.731 13.88C151.368 13.9933 151.119 14.2313 150.983 14.594C150.869 14.9567 150.812 15.512 150.812 16.26V33.26C150.812 34.1213 150.903 34.7673 151.085 35.198C151.266 35.6287 151.617 35.912 152.139 36.048C152.66 36.184 153.408 36.2633 154.383 36.286V37C153.725 36.9547 152.875 36.932 151.833 36.932C150.79 36.9093 149.713 36.898 148.603 36.898C147.651 36.898 146.733 36.9093 145.849 36.932C144.965 36.932 144.194 36.9547 143.537 37V36.32C144.285 36.2747 144.84 36.184 145.203 36.048C145.588 35.912 145.837 35.64 145.951 35.232C146.087 34.824 146.155 34.212 146.155 33.396V16.532C146.155 15.6933 146.087 15.0813 145.951 14.696C145.837 14.288 145.588 14.016 145.203 13.88C144.84 13.7213 144.285 13.6307 143.537 13.608V12.928C144.443 12.9507 145.395 12.9733 146.393 12.996C147.413 12.996 148.41 13.0073 149.385 13.03C150.382 13.03 151.3 13.03 152.139 13.03C153 13.03 153.691 13.03 154.213 13.03C155.255 13.03 156.434 13.03 157.749 13.03C159.086 13.0073 160.276 12.9733 161.319 12.928ZM156.185 24.76C156.185 24.76 156.185 24.8733 156.185 25.1C156.185 25.3267 156.185 25.44 156.185 25.44H149.793C149.793 25.44 149.793 25.3267 149.793 25.1C149.793 24.8733 149.793 24.76 149.793 24.76H156.185ZM156.967 20.272C156.876 21.564 156.831 22.55 156.831 23.23C156.853 23.91 156.865 24.5333 156.865 25.1C156.865 25.6667 156.876 26.29 156.899 26.97C156.921 27.65 156.978 28.636 157.069 29.928H156.287C156.196 29.1573 156.026 28.432 155.777 27.752C155.527 27.0493 155.142 26.494 154.621 26.086C154.122 25.6553 153.397 25.44 152.445 25.44V24.76C153.147 24.76 153.725 24.6127 154.179 24.318C154.632 24.0233 154.983 23.6493 155.233 23.196C155.505 22.72 155.709 22.2327 155.845 21.734C156.003 21.2127 156.117 20.7253 156.185 20.272H156.967ZM174.373 18.946C175.076 18.946 175.654 19.0933 176.107 19.388C176.583 19.6827 176.935 20.0567 177.161 20.51C177.388 20.9633 177.501 21.4393 177.501 21.938C177.501 22.686 177.275 23.3093 176.821 23.808C176.391 24.3067 175.813 24.556 175.087 24.556C174.407 24.556 173.852 24.3747 173.421 24.012C172.991 23.6493 172.775 23.1507 172.775 22.516C172.775 21.9493 172.911 21.4733 173.183 21.088C173.478 20.7027 173.807 20.3967 174.169 20.17C173.92 20.034 173.637 19.9887 173.319 20.034C172.775 20.0793 172.277 20.272 171.823 20.612C171.37 20.952 170.985 21.3713 170.667 21.87C170.35 22.3687 170.101 22.9013 169.919 23.468C169.761 24.0347 169.681 24.5787 169.681 25.1V33.498C169.681 34.6087 169.965 35.3567 170.531 35.742C171.098 36.1047 171.925 36.286 173.013 36.286V37C172.492 36.9773 171.733 36.9547 170.735 36.932C169.761 36.8867 168.741 36.864 167.675 36.864C166.791 36.864 165.907 36.8867 165.023 36.932C164.162 36.9547 163.516 36.9773 163.085 37V36.286C163.924 36.286 164.513 36.116 164.853 35.776C165.216 35.436 165.397 34.79 165.397 33.838V23.128C165.397 22.108 165.227 21.36 164.887 20.884C164.57 20.3853 163.969 20.136 163.085 20.136V19.422C163.811 19.49 164.513 19.524 165.193 19.524C166.032 19.524 166.825 19.49 167.573 19.422C168.344 19.3313 169.047 19.2067 169.681 19.048V22.584C169.953 21.9493 170.305 21.36 170.735 20.816C171.189 20.272 171.721 19.83 172.333 19.49C172.968 19.1273 173.648 18.946 174.373 18.946ZM186.727 18.946C188.722 18.946 190.286 19.5467 191.419 20.748C192.553 21.9493 193.119 23.8647 193.119 26.494H181.661L181.627 25.848H189.175C189.221 24.7373 189.153 23.7173 188.971 22.788C188.79 21.836 188.495 21.0767 188.087 20.51C187.702 19.9433 187.192 19.66 186.557 19.66C185.696 19.66 184.948 20.17 184.313 21.19C183.679 22.1873 183.282 23.8307 183.123 26.12L183.259 26.324C183.214 26.6187 183.18 26.936 183.157 27.276C183.157 27.616 183.157 27.956 183.157 28.296C183.157 29.86 183.384 31.152 183.837 32.172C184.291 33.192 184.88 33.94 185.605 34.416C186.331 34.892 187.079 35.13 187.849 35.13C188.371 35.13 188.903 35.0507 189.447 34.892C189.991 34.7333 190.524 34.4387 191.045 34.008C191.567 33.5773 192.043 32.9653 192.473 32.172L193.119 32.444C192.87 33.2373 192.451 34.0307 191.861 34.824C191.295 35.5947 190.558 36.2293 189.651 36.728C188.745 37.2267 187.679 37.476 186.455 37.476C184.914 37.476 183.554 37.136 182.375 36.456C181.197 35.776 180.279 34.7673 179.621 33.43C178.964 32.07 178.635 30.4153 178.635 28.466C178.635 26.4033 178.975 24.6693 179.655 23.264C180.358 21.8587 181.321 20.7933 182.545 20.068C183.769 19.32 185.163 18.946 186.727 18.946ZM203.893 18.946C205.888 18.946 207.452 19.5467 208.585 20.748C209.719 21.9493 210.285 23.8647 210.285 26.494H198.827L198.793 25.848H206.341C206.387 24.7373 206.319 23.7173 206.137 22.788C205.956 21.836 205.661 21.0767 205.253 20.51C204.868 19.9433 204.358 19.66 203.723 19.66C202.862 19.66 202.114 20.17 201.479 21.19C200.845 22.1873 200.448 23.8307 200.289 26.12L200.425 26.324C200.38 26.6187 200.346 26.936 200.323 27.276C200.323 27.616 200.323 27.956 200.323 28.296C200.323 29.86 200.55 31.152 201.003 32.172C201.457 33.192 202.046 33.94 202.771 34.416C203.497 34.892 204.245 35.13 205.015 35.13C205.537 35.13 206.069 35.0507 206.613 34.892C207.157 34.7333 207.69 34.4387 208.211 34.008C208.733 33.5773 209.209 32.9653 209.639 32.172L210.285 32.444C210.036 33.2373 209.617 34.0307 209.027 34.824C208.461 35.5947 207.724 36.2293 206.817 36.728C205.911 37.2267 204.845 37.476 203.621 37.476C202.08 37.476 200.72 37.136 199.541 36.456C198.363 35.776 197.445 34.7673 196.787 33.43C196.13 32.07 195.801 30.4153 195.801 28.466C195.801 26.4033 196.141 24.6693 196.821 23.264C197.524 21.8587 198.487 20.7933 199.711 20.068C200.935 19.32 202.329 18.946 203.893 18.946Z" fill="#181331"/>
<defs>
<linearGradient id="paint0_linear_1_16" x1="-5.43594e-07" y1="42.9913" x2="41.3422" y2="2.32258" gradientUnits="userSpaceOnUse">
<stop offset="0.189061" stop-color="#F8CC75"/>
<stop offset="0.811088" stop-color="#AAC7E2"/>
</linearGradient>
</defs>
</svg>
